<svg width="30" height="30" viewBox="0 0 30 30" fill="" xmlns="http://www.w3.org/2000/svg">
<g clip-path="url(#clip0_165_43)">
<path d="M9.88111 2.6875L1.07768 11.4916C1.03339 11.536 1.00141 11.5921 0.986184 11.6524L0.0104079 15.5689C-0.0187804 15.6868 0.0158648 15.8122 0.101907 15.8982C0.167009 15.9633 0.255716 15.9994 0.346453 15.9994C0.374246 15.9994 0.402672 15.9959 0.430338 15.989L4.34689 15.0131C4.40793 14.9978 4.46339 14.966 4.50768 14.9217L13.3119 6.11826L9.88111 2.6875Z" fill=""/>
<path d="M15.4924 1.48657L14.5124 0.506606C13.8574 -0.148353 12.7159 -0.147718 12.0617 0.506606L10.8613 1.707L14.292 5.13764L15.4924 3.93724C15.8195 3.61021 15.9997 3.17492 15.9997 2.71197C15.9997 2.24902 15.8195 1.81373 15.4924 1.48657Z" fill=""/>
</g>
<defs>
<clipPath id="clip0_165_43">
<rect width="30" height="30" fill=""/>
</clipPath>
</defs>
</svg>
